<?xml version="1.0" encoding="utf-8"?>
<!-- Generator: Adobe Illustrator 19.0.0, SVG Export Plug-In . SVG Version: 6.00 Build 0)  -->
<svg version="1.1" id="Layer_1" xmlns="http://www.w3.org/2000/svg" xmlns:xlink="http://www.w3.org/1999/xlink" x="0px" y="0px"
	 viewBox="0 0 220 220" style="enable-background:new 0 0 220 220;" xml:space="preserve">
<style type="text/css">
	.st0{fill:none;stroke:#000000;stroke-width:5;stroke-miterlimit:10;}
</style>
<g id="XMLID_5_">
	<g id="XMLID_7_">
		<path id="XMLID_8_" d="M112.9,137.3h32.6v5.1H75.3v-5.1h32.4v-5.5H85.9v-16.5h21.7v-5.7l6.7,0.6c-0.1,0.7-0.5,1.1-1.5,1.3v3.8
			h22.9v16.5h-22.9V137.3z M104.3,188.1c-0.4,0.6-0.7,0.6-1.7,0.6c-6.2,3.4-15.9,7-23.7,9.1c-0.8-1.1-2.4-3.3-3.5-4.4
			c7.8-1.8,17.5-5.1,23.3-8.6L104.3,188.1z M136.5,147.4v36H85.3v-36H136.5z M131.2,158v-6.3H90.5v6.3H131.2z M131.2,168.4v-6.2
			H90.5v6.2H131.2z M131.2,179.1v-6.5H90.5v6.5H131.2z M90.9,127.4h16.7v-7.6H90.9V127.4z M130.7,119.8h-17.8v7.6h17.8V119.8z
			 M139.6,197.6c-5.1-2.7-13.6-6.4-22.5-9.5l4.4-3.3c8.8,2.8,18.3,6.6,24.1,9.5L139.6,197.6z"/>
	</g>
</g>
<g id="XMLID_6_">
	<path id="XMLID_18_" d="M103.6,63c-0.2,0.6-0.7,1-1.8,1.1c-1.7,16.4-5.4,28.1-25.9,34.2c-0.7-1.4-2.1-3.6-3.4-4.8
		C91.6,88.4,94.9,78.2,96,62.3L103.6,63z M123,89.4c0,2.8,0.7,3.3,4.3,3.3h12c3.6,0,4.2-2.1,4.6-15c1.2,1,3.6,2,5.1,2.4
		c-0.6,14.2-2.1,17.9-9.3,17.9h-12.9c-7.2,0-9.3-1.8-9.3-8.5V61.1H82.7V26.8h56.9v34.3h-15.9c-0.2,0.1-0.5,0.2-0.7,0.2V89.4z
		 M88.2,32.3v23.3h45.6V32.3H88.2z"/>
</g>
<rect id="XMLID_3_" x="59.1" y="3.7" class="st0" width="101.8" height="212.6"/>
</svg>
