<?xml version="1.0" standalone="no"?>
<!DOCTYPE svg PUBLIC "-//W3C//DTD SVG 20010904//EN"
 "http://www.w3.org/TR/2001/REC-SVG-20010904/DTD/svg10.dtd">
<svg version="1.0" xmlns="http://www.w3.org/2000/svg"
 width="100.000000pt" height="100.000000pt" viewBox="0 0 100.000000 100.000000"
 preserveAspectRatio="xMidYMid meet">
<metadata>
Created by potrace 1.11, written by Peter Selinger 2001-2013
</metadata>
<g transform="translate(0.000000,100.000000) scale(0.100000,-0.100000)"
fill="#000000" stroke="none">
<path d="M562 978 c-7 -7 -12 -9 -12 -4 0 4 -7 1 -15 -8 -8 -8 -15 -19 -15
-25 0 -6 -5 -11 -11 -11 -5 0 -8 -4 -4 -9 3 -5 1 -12 -5 -16 -6 -4 -8 -11 -5
-16 4 -5 2 -9 -2 -9 -5 0 -9 -10 -10 -22 -1 -11 -6 -24 -10 -27 -4 -3 -9 -13
-11 -21 -3 -14 -12 -34 -53 -125 -10 -22 -29 -65 -42 -95 -27 -63 -47 -71
-144 -55 -34 6 -44 4 -59 -13 -26 -31 -25 -50 4 -73 19 -15 35 -19 57 -15 65
12 73 13 71 2 -2 -17 -32 -57 -38 -51 -8 8 -4 -99 4 -111 8 -12 56 -7 75 8 8
6 11 33 10 73 -2 68 10 93 49 100 10 2 19 4 19 5 0 1 7 3 15 5 8 2 33 7 55 12
22 5 46 8 53 7 6 -1 16 -2 21 -3 5 0 9 -40 11 -88 1 -49 3 -109 5 -135 2 -31
-1 -48 -9 -48 -8 0 -8 -2 0 -8 12 -7 14 -20 15 -93 0 -25 4 -51 8 -58 13 -20
83 -25 124 -8 47 20 48 45 2 88 -19 18 -32 35 -30 38 3 2 1 9 -5 16 -5 6 -11
37 -12 68 -2 31 -5 57 -9 57 -3 0 -5 44 -5 97 l1 98 39 13 c21 7 66 15 99 17
68 5 97 13 97 25 0 13 -39 16 -143 10 -118 -6 -119 -5 -121 100 -1 30 -4 57
-8 60 -4 3 -9 37 -11 75 -2 39 -7 77 -10 85 -4 8 -8 32 -10 53 -5 45 -9 51
-25 35z m-48 -209 c-3 -5 -2 -15 3 -22 12 -15 30 -79 39 -132 3 -22 7 -44 7
-49 1 -4 -9 -10 -23 -12 -156 -26 -158 -26 -134 37 10 24 22 47 27 50 5 3 8 9
7 13 -3 13 64 134 72 130 5 -3 6 -10 2 -15z"/>
</g>
</svg>
