<?xml version="1.0" standalone="no"?>
<!DOCTYPE svg PUBLIC "-//W3C//DTD SVG 20010904//EN"
 "http://www.w3.org/TR/2001/REC-SVG-20010904/DTD/svg10.dtd">
<svg version="1.0" xmlns="http://www.w3.org/2000/svg"
 width="700.000000pt" height="700.000000pt" viewBox="0 0 700.000000 700.000000"
 preserveAspectRatio="xMidYMid meet">
<metadata>
Created by potrace 1.11, written by Peter Selinger 2001-2013
</metadata>
<g transform="translate(0.000000,700.000000) scale(0.100000,-0.100000)"
fill="#000000" stroke="none">
<path d="M1838 6962 l-38 -3 0 -3460 0 -3459 23 -1 c28 -1 3348 0 3365 0 9 1
12 700 12 3461 0 1903 -3 3460 -7 3461 -30 2 -3326 3 -3355 1z m3195 -161 c4
-1 6 -1487 5 -3303 l-3 -3301 -1525 0 c-839 1 -1531 2 -1537 2 -10 1 -13 669
-13 3304 l0 3302 1532 -2 c843 -1 1536 -2 1541 -2z"/>
<path d="M2630 5604 c0 -428 3 -544 13 -545 6 -1 255 -2 552 -3 l540 -1 2
-450 c0 -247 4 -481 7 -518 5 -72 30 -129 69 -157 55 -39 85 -43 377 -46 303
-3 364 3 417 39 71 47 115 194 128 425 5 99 5 102 -17 112 -13 5 -45 19 -73
31 -27 13 -54 23 -59 23 -5 1 -10 -39 -12 -89 -8 -215 -24 -302 -63 -344 l-28
-30 -252 0 c-255 0 -292 4 -307 38 -12 27 -12 960 0 964 6 2 123 3 259 2 137
0 251 3 254 8 7 12 7 1063 -1 1075 -3 6 -334 10 -906 10 l-900 0 0 -544z
m1546 366 l81 0 0 -370 0 -370 -724 0 c-681 0 -723 1 -724 18 -4 68 -3 706 1
712 8 13 114 15 725 13 308 -2 596 -3 641 -3z"/>
<path d="M3056 5011 c-2 -3 -7 -42 -10 -86 -20 -241 -82 -440 -175 -565 -49
-65 -56 -72 -129 -131 -84 -68 -198 -127 -333 -172 l-95 -32 51 -76 51 -76 80
27 c304 103 509 271 615 505 28 63 66 171 74 215 3 14 9 48 15 75 14 73 19
103 26 170 8 74 19 105 38 105 7 0 19 7 26 15 11 13 7 15 -26 16 -22 0 -58 2
-81 5 -100 10 -124 11 -127 5z"/>
<path d="M3425 3434 c0 -44 -1 -85 -3 -91 -3 -10 -81 -13 -347 -13 l-342 0 -1
-260 -1 -260 22 -1 c12 0 168 -2 347 -2 l325 -2 1 -87 2 -88 -517 0 -516 0 0
-77 1 -78 1117 -3 1117 -2 0 80 0 80 -520 0 -520 0 0 88 0 89 333 -1 c182 -1
346 1 363 2 l32 4 0 259 0 259 -364 0 -364 0 0 59 c0 46 4 63 18 73 29 21 33
34 9 35 -12 0 -61 4 -108 8 l-86 7 2 -78z m-4 -267 c3 -59 4 -203 2 -212 -2
-6 -99 -10 -266 -9 l-262 0 -2 121 -3 121 265 0 265 0 1 -21z m736 -99 l-2
-122 -270 -1 c-148 0 -276 1 -283 4 -10 3 -13 31 -11 115 0 61 3 114 5 118 2
3 130 7 284 7 l280 0 -3 -121z"/>
<path d="M2719 2303 c-1 -5 -3 -261 -3 -570 -1 -382 2 -564 9 -566 5 -2 372
-3 814 -3 l804 1 0 570 0 570 -811 3 c-447 1 -813 -1 -813 -5z m1451 -132 c4
-1 5 -169 1 -192 -1 -4 -291 -6 -646 -6 l-645 0 0 98 0 98 38 3 c29 2 1233 1
1252 -1z m5 -429 l0 -97 -645 0 -645 0 -3 97 -3 97 648 0 648 0 0 -97z m0
-339 l0 -102 -647 0 -648 0 0 104 0 105 647 -3 648 -2 0 -102z"/>
<path d="M3080 1088 c-30 -17 -93 -46 -140 -65 -47 -19 -98 -41 -115 -48 -51
-22 -246 -83 -337 -106 l-88 -21 52 -67 c29 -36 53 -68 55 -70 3 -5 87 19 208
58 154 50 335 122 466 186 51 25 101 45 112 45 34 0 12 23 -69 72 -43 26 -81
47 -84 47 -3 0 -30 -14 -60 -31z"/>
<path d="M3803 1073 c-32 -24 -62 -48 -66 -52 -4 -5 27 -21 70 -36 169 -61
438 -174 588 -248 28 -14 55 -22 60 -17 6 4 46 26 90 50 44 24 81 44 83 46 16
13 -535 234 -715 287 l-51 15 -59 -45z"/>
</g>
</svg>
