<?xml version="1.0" encoding="utf-8"?>
<!-- Generator: Adobe Illustrator 19.0.0, SVG Export Plug-In . SVG Version: 6.00 Build 0)  -->
<svg version="1.1" id="Layer_1" xmlns="http://www.w3.org/2000/svg" xmlns:xlink="http://www.w3.org/1999/xlink" x="0px" y="0px"
	 viewBox="-66 68.3 86.4 85.7" style="enable-background:new -66 68.3 86.4 85.7;" xml:space="preserve">
<style type="text/css">
	.st0{fill:none;stroke:#FFFFFF;stroke-miterlimit:10;}
</style>
<title>Asset 1</title>
<path class="st0" d="M9.8,149.6h-64.6c-3.3,0-6-2.7-6-6V78.7c0-3.3,2.7-6,6-6H9.8c3.3,0,6,2.7,6,6v64.9
	C15.8,146.9,13.1,149.6,9.8,149.6z"/>
<path class="st0" d="M4.7,86.4c-2.1,0-5,0-8.5,0c-8,0.1-9.1,0.3-10.3,0.8c-4.9,2.1-7.2,6.7-7.8,8c-1.4,2.9-1.7,5.5-2,7.7
	c-0.3,2.9-0.2,5.3,0,7c-3.5,0-7,0-10.5,0v13.7H-24l-0.2,26h13.5l0.2-25.8H2.3v-13h-13c-0.1-1.4-0.2-3.3-0.2-5.7
	c0-3.2,0.3-3.8,0.7-4.3c0.9-1.2,2.5-1.3,6-1.3c2.4,0,5.4-0.1,8.8,0C4.7,95.1,4.7,90.8,4.7,86.4z"/>
</svg>
