<?xml version="1.0" encoding="utf-8"?>
<!-- Generator: Adobe Illustrator 19.0.0, SVG Export Plug-In . SVG Version: 6.00 Build 0)  -->
<svg version="1.1" id="Layer_1" xmlns="http://www.w3.org/2000/svg" xmlns:xlink="http://www.w3.org/1999/xlink" x="0px" y="0px"
	 viewBox="0 0 500 500" style="enable-background:new 0 0 500 500;" xml:space="preserve">
<style type="text/css">
	.st0{fill:#326699;}
	.st1{fill:#FFFFFF;}
</style>
<rect class="st0" width="499.9" height="500.7"/>
<path class="st1" d="M127.8,86.2h244.3c23.2,0,42.4,19.2,42.4,42.4v244.7c0,23.2-19.2,42.4-42.4,42.4H127.8
	c-23.2,0-42.4-19.2-42.4-42.4V128.7C85.4,104.8,104.6,86.2,127.8,86.2z M324.4,122.7c-7.9,0-14.6,6.6-14.6,14.6v35.1
	c0,8,6.6,14.6,14.6,14.6h37.1c7.9,0,14.6-6.6,14.6-14.6v-35.1c0-8-6.6-14.6-14.6-14.6H324.4z M376.7,224.8h-29.1
	c2.6,9.3,4,18.6,4,28.5c0,55-45.7,98.8-102,98.8s-102-44.4-102-98.8c0-9.9,1.3-19.2,4-28.5h-30.5v139.3c0,7.3,6,13.3,13.2,13.3
	h229.1c7.3,0,13.2-6,13.2-13.3L376.7,224.8L376.7,224.8z M250.3,185.7c-36.4,0-66.2,28.5-66.2,64.3c0,35.1,29.8,64.3,66.2,64.3
	s66.2-28.5,66.2-64.3C315.8,214.2,286.7,185.7,250.3,185.7z"/>
</svg>
